<svg width="256" height="256" viewBox="0 0 256 256" xmlns="http://www.w3.org/2000/svg">
  <defs>
    <linearGradient id="fileGradient" x1="0%" y1="0%" x2="100%" y2="100%">
      <stop offset="0%" style="stop-color:#4A90E2;stop-opacity:1" />
      <stop offset="100%" style="stop-color:#357ABD;stop-opacity:1" />
    </linearGradient>
    <linearGradient id="searchGradient" x1="0%" y1="0%" x2="100%" y2="100%">
      <stop offset="0%" style="stop-color:#50C878;stop-opacity:1" />
      <stop offset="100%" style="stop-color:#3A9B5C;stop-opacity:1" />
    </linearGradient>
  </defs>
  
  <!-- Main rounded rectangle with transparent background -->
  <rect x="28" y="28" width="200" height="200" rx="20" ry="20" fill="none" />
  
  <!-- Main file icon (larger) -->
  <path d="M50 40 L50 216 L170 216 L170 70 L140 40 Z" fill="url(#fileGradient)" stroke="#2c5aa0" stroke-width="3"/>
  
  <!-- File corner fold -->
  <path d="M140 40 L140 70 L170 70 Z" fill="#2c5aa0" opacity="0.3"/>
  
  <!-- File lines (content representation) -->
  <line x1="70" y1="90" x2="130" y2="90" stroke="white" stroke-width="4" opacity="0.8"/>
  <line x1="70" y1="110" x2="150" y2="110" stroke="white" stroke-width="4" opacity="0.8"/>
  <line x1="70" y1="130" x2="120" y2="130" stroke="white" stroke-width="4" opacity="0.8"/>
  <line x1="70" y1="150" x2="140" y2="150" stroke="white" stroke-width="4" opacity="0.8"/>
  
  <!-- Magnifying glass (detection/search symbol) -->
  <circle cx="150" cy="150" r="24" fill="url(#searchGradient)" stroke="#2d7a47" stroke-width="4"/>
  <circle cx="150" cy="150" r="16" fill="none" stroke="white" stroke-width="4"/>
  <line x1="168" y1="168" x2="184" y2="184" stroke="#2d7a47" stroke-width="6" stroke-linecap="round"/>
  
  <!-- Check mark inside magnifying glass -->
  <path d="M140 150 L146 156 L160 142" fill="none" stroke="white" stroke-width="4" stroke-linecap="round" stroke-linejoin="round"/>
</svg>